# xmcd
#
# Track frame offsets: 
#        150
#        10199
#        21341
#        32978
#        43699
#        53902
#        63809
#        79001
#        90325
#        101215
#        109559
#        119059
#        131193
#        141039
#        152849
#        164098
#        175119
#        184321
#        196282
#        206823
#
# Disc length: 2907 seconds
#
# Revision: 0
# Processed by: cddbd v1.5.2PL0 Copyright (c) Steve Scherf et al.
# Submitted via: ExactAudioCopy v0.99pb4
#
DISCID=1e0b5914
DTITLE=Jim Reeves - Legendary Favorites Disc 1
DYEAR=1997
DGENRE=Classic Country
TTITLE0=Is It Really Over
TTITLE1=Mexicali Rose
TTITLE2=Welcome to My World
TTITLE3=Then I'll Stop Loving You
TTITLE4=I'm Gettin' Better
TTITLE5=A Fool Such as I
TTITLE6=The Blizzard
TTITLE7=Love Is No Excuse
TTITLE8=I Love You More
TTITLE9=From a Jack to a King
TTITLE10=I'm Gonna Change Everything
TTITLE11=Precious Memories
TTITLE12=Blue Boy
TTITLE13=there's a New moon Over My Shoulder
TTITLE14=Anna Marie
TTITLE15=Just Walking In the Rain
TTITLE16=I Know One
TTITLE17=Missing You
TTITLE18=Don't Let Me Cross Over
TTITLE19=I Love You Because
EXTD=
EXTT0=
EXTT1=
EXTT2=
EXTT3=
EXTT4=
EXTT5=
EXTT6=
EXTT7=
EXTT8=
EXTT9=
EXTT10=
EXTT11=
EXTT12=
EXTT13=
EXTT14=
EXTT15=
EXTT16=
EXTT17=
EXTT18=
EXTT19=
PLAYORDER=
